<?xml version="1.0" standalone="no"?>
<!DOCTYPE svg PUBLIC "-//W3C//DTD SVG 20010904//EN"
 "http://www.w3.org/TR/2001/REC-SVG-20010904/DTD/svg10.dtd">
<svg version="1.0" xmlns="http://www.w3.org/2000/svg"
 width="512.000000pt" height="512.000000pt" viewBox="0 0 512.000000 512.000000"
 preserveAspectRatio="xMidYMid meet">

<g transform="translate(0.000000,512.000000) scale(0.100000,-0.100000)"
fill="white" stroke="none">
<path d="M650 4925 c-337 -68 -587 -329 -639 -665 -9 -55 -11 -463 -9 -1565 3
-1625 -1 -1500 58 -1657 66 -177 261 -372 438 -438 154 -58 79 -54 1192 -58
785 -2 1035 0 1069 9 126 35 180 198 102 306 -15 21 -139 181 -274 357 -136
175 -247 321 -247 325 0 5 1418 1813 1439 1834 4 4 217 -241 472 -545 l464
-553 5 -206 c5 -202 5 -206 32 -246 41 -62 90 -88 168 -88 78 0 127 26 168 88
l27 41 0 1200 c0 1091 -2 1207 -17 1261 -29 106 -58 172 -107 247 -114 174
-261 279 -481 346 -50 16 -208 17 -1925 19 -1515 1 -1882 -1 -1935 -12z m3842
-427 c91 -45 147 -103 191 -196 l32 -67 3 -540 c1 -297 1 -598 0 -670 l-3
-129 -402 480 c-221 263 -417 488 -435 499 -46 28 -150 27 -197 0 -21 -13
-307 -368 -814 -1012 -429 -546 -783 -993 -786 -992 -3 0 -127 157 -275 350
-173 224 -282 357 -305 372 -48 30 -151 31 -200 2 -37 -22 -481 -590 -518
-664 -86 -168 97 -344 267 -258 37 18 72 57 195 219 83 108 152 197 155 197 4
0 780 -999 874 -1125 l18 -25 -793 3 -794 3 -67 32 c-93 44 -151 100 -196 191
l-37 76 0 1495 0 1496 32 67 c17 37 50 87 72 111 44 48 135 101 197 116 23 5
789 8 1875 8 l1835 -2 76 -37z"/>
<path d="M1252 4200 c-109 -29 -187 -74 -272 -160 -87 -86 -131 -163 -160
-276 -36 -141 -18 -294 52 -427 42 -81 164 -203 245 -245 133 -70 286 -88 427
-52 113 29 190 73 276 160 87 86 131 163 160 276 36 141 18 294 -52 427 -42
81 -164 203 -245 245 -132 69 -291 88 -431 52z m258 -414 c59 -39 85 -89 85
-166 0 -78 -26 -127 -88 -168 -56 -37 -153 -39 -210 -3 -76 47 -111 140 -88
229 14 51 75 117 123 131 53 16 135 6 178 -23z"/>
<path d="M4102 2069 c-45 -13 -108 -80 -121 -126 -7 -23 -11 -154 -11 -325 l0
-287 -308 -3 -309 -3 -40 -27 c-62 -41 -88 -90 -88 -168 0 -78 26 -127 88
-168 l40 -27 308 -3 308 -3 3 -307 c3 -303 3 -307 27 -345 13 -21 42 -50 64
-65 34 -23 52 -27 107 -27 55 0 73 4 107 27 22 15 51 44 64 65 24 38 24 42 27
345 l3 307 307 3 c303 3 307 3 345 27 21 13 50 42 65 64 23 34 27 52 27 107 0
55 -4 73 -27 107 -15 22 -44 51 -65 64 -38 24 -42 24 -345 27 l-307 3 -3 307
c-3 303 -3 307 -27 345 -47 76 -151 113 -239 86z"/>
</g>
</svg>
